<?xml version="1.0" encoding="UTF-8" standalone="no"?>
<!-- Created with Inkscape (http://www.inkscape.org/) -->

<svg
   xmlns:dc="http://purl.org/dc/elements/1.1/"
   xmlns:cc="http://creativecommons.org/ns#"
   xmlns:rdf="http://www.w3.org/1999/02/22-rdf-syntax-ns#"
   xmlns:svg="http://www.w3.org/2000/svg"
   xmlns="http://www.w3.org/2000/svg"
   xmlns:sodipodi="http://sodipodi.sourceforge.net/DTD/sodipodi-0.dtd"
   xmlns:inkscape="http://www.inkscape.org/namespaces/inkscape"
   width="128"
   height="128"
   id="svg2"
   version="1.1"
   inkscape:version="0.48.2 r9819"
   sodipodi:docname="logo.svg"
   inkscape:export-filename="/Users/xanmanning/git/deapexer/images/logo.png"
   inkscape:export-xdpi="90"
   inkscape:export-ydpi="90">
  <defs
     id="defs4" />
  <sodipodi:namedview
     id="base"
     pagecolor="#ffffff"
     bordercolor="#666666"
     borderopacity="1.0"
     inkscape:pageopacity="0.0"
     inkscape:pageshadow="2"
     inkscape:zoom="2.8284271"
     inkscape:cx="174.49057"
     inkscape:cy="60.103812"
     inkscape:document-units="px"
     inkscape:current-layer="layer1"
     showgrid="false"
     inkscape:window-width="1440"
     inkscape:window-height="792"
     inkscape:window-x="0"
     inkscape:window-y="0"
     inkscape:window-maximized="1"
     showguides="true"
     inkscape:guide-bbox="true">
    <sodipodi:guide
       position="0,0"
       orientation="0,128"
       id="guide3146" />
    <sodipodi:guide
       position="128,0"
       orientation="-128,0"
       id="guide3148" />
    <sodipodi:guide
       position="128,128"
       orientation="0,-128"
       id="guide3150" />
    <sodipodi:guide
       position="0,128"
       orientation="128,0"
       id="guide3152" />
  </sodipodi:namedview>
  <metadata
     id="metadata7">
    <rdf:RDF>
      <cc:Work
         rdf:about="">
        <dc:format>image/svg+xml</dc:format>
        <dc:type
           rdf:resource="http://purl.org/dc/dcmitype/StillImage" />
        <dc:title></dc:title>
      </cc:Work>
    </rdf:RDF>
  </metadata>
  <g
     inkscape:label="Layer 1"
     inkscape:groupmode="layer"
     id="layer1"
     transform="translate(0,-924.36218)">
    <path
       sodipodi:type="arc"
       style="fill:#9e0031;fill-opacity:1;stroke:none;stroke-width:3.54300000000000015;stroke-miterlimit:4;stroke-opacity:1;stroke-dasharray:none"
       id="path3154"
       sodipodi:cx="64"
       sodipodi:cy="64"
       sodipodi:rx="64"
       sodipodi:ry="64"
       d="M 128,64 C 128,99.346224 99.346224,128 64,128 28.653776,128 0,99.346224 0,64 0,28.653776 28.653776,0 64,0 c 35.346224,0 64,28.653776 64,64 z"
       transform="translate(0,924.36218)" />
    <path
       style="fill:#44001a;fill-opacity:1;stroke:none"
       d="m 64,924.36268 c -35.346224,0 -64,28.65366 -64,63.99973 0,13.90319 4.4378825,26.78219 11.96875,37.28109 l 45.09375,-78.15592 18.90625,32.74987 -12.28125,0 -35.375,61.28095 c 0.99167,0.6676 2.001241,1.2939 3.03125,1.9063 l 34.8125,-60.28102 30.78125,0 22,38.09362 C 124.70125,1011.6288 128,1000.3825 128,988.36241 128,953.01634 99.346224,924.36268 64,924.36268 z"
       id="path3924"
       inkscape:connector-curvature="0" />
    <path
       transform="translate(196.625,924.36218)"
       sodipodi:type="arc"
       style="fill:#9e0031;fill-opacity:1;stroke:none"
       id="path3154-2"
       sodipodi:cx="64"
       sodipodi:cy="64"
       sodipodi:rx="64"
       sodipodi:ry="64"
       d="M 128,64 C 128,99.346224 99.346224,128 64,128 28.653776,128 0,99.346224 0,64 0,28.653776 28.653776,0 64,0 c 35.346224,0 64,28.653776 64,64 z" />
    <path
       sodipodi:type="arc"
       style="fill:#44001a;fill-opacity:1;stroke:none"
       id="path3924-5"
       sodipodi:cx="-49.375"
       sodipodi:cy="39"
       sodipodi:rx="18.625"
       sodipodi:ry="18.25"
       d="m -30.75,39 c 0,10.079197 -8.338697,18.25 -18.625,18.25 C -59.661303,57.25 -68,49.079197 -68,39 c 0,-10.079197 8.338697,-18.25 18.625,-18.25 10.286303,0 18.625,8.170803 18.625,18.25 z"
       transform="matrix(3.4362416,0,0,3.5068493,430.28943,851.59506)" />
    <path
       style="fill:#00001a;fill-opacity:1;stroke:none"
       d="M 193.875,1051.1122 253.70199,947.48879 314.41453,1052.646 z"
       id="path3928-4"
       inkscape:connector-curvature="0" />
    <path
       style="fill:#006757;fill-opacity:1;stroke:none"
       d="m 218.625,1052.4756 41.70023,-72.22689 30.79977,0 41.0521,71.10429 z"
       id="path3930-7-7"
       inkscape:connector-curvature="0" />
    <path
       style="fill:#000057;fill-opacity:1;stroke:none"
       d="m 221.0729,1055.3622 41.70023,-72.22694 30.79977,0 41.0521,71.10434 z"
       id="path3930-78"
       inkscape:connector-curvature="0" />
  </g>
</svg>
